# xmcd
#
# Track frame offsets: 
#        150
#        12407
#        22403
#        33555
#        47050
#        58241
#        69585
#        82082
#        95427
#        110699
#        120932
#        134135
#        147954
#        156700
#        169558
#        181288
#        194300
#        207535
#        220000
#        231275
#        243763
#        254143
#        264679
#        276023
#
# Disc length: 3827 seconds
#
# Revision: 1
# Processed by: cddbd v1.5.2PL0 Copyright (c) Steve Scherf et al.
# Submitted via: ExactAudioCopy v1.0b1
#
DISCID=7a0ef118
DTITLE=Various Artist - The Complete Motown Singles Volume 4 [CD21)
DYEAR=2006
DGENRE=R&B/Soul
TTITLE0=Martha and The Vandellas - Wild One
TTITLE1=Martha and The Vandellas - Dancing Slow
TTITLE2=Carolyn Crawford - When Someone's Good To You
TTITLE3=Carolyn Crawford - My Heart
TTITLE4=The Contours - Can You Jerk Like Me
TTITLE5=The Contours - That Day When She Needed Me
TTITLE6=The Miracles - Come On Do The Jerk
TTITLE7=The Miracles - Baby Don't You Go
TTITLE8=Ray Oddis - Randy, The Newspaper Boy
TTITLE9=Ray Oddis - Happy Ghoul Tide
TTITLE10=Tony Martin - Talkin' To Your Picture
TTITLE11=Tony Martin - Our Rhapsody
TTITLE12=Dorsey Burnette - Ever Since The World Began
TTITLE13=Dorsey Burnette - Long Long Time Ago
TTITLE14=Marvin Gaye - This Is The Life
TTITLE15=Marvin Gaye - My Way
TTITLE16=The Temptations - My Girl
TTITLE17=The Temptations - (Talkin' 'Bout) Nobody But My Baby
TTITLE18=Choker Campbell's Big Band - Come See About Me
TTITLE19=Choker Campbell's Big Band - Pride And Joy
TTITLE20=Howard Crockett - Put Me In Your Pocket
TTITLE21=Howard Crockett - The Miles
TTITLE22=The Velvelettes - He Was Really Sayin' Somethin'
TTITLE23=The Velvelettes - Throw A Farewell Kiss
EXTD=
EXTT0=
EXTT1=
EXTT2=
EXTT3=
EXTT4=
EXTT5=
EXTT6=
EXTT7=
EXTT8=
EXTT9=
EXTT10=
EXTT11=
EXTT12=
EXTT13=
EXTT14=
EXTT15=
EXTT16=
EXTT17=
EXTT18=
EXTT19=
EXTT20=
EXTT21=
EXTT22=
EXTT23=
PLAYORDER=
